<?xml version="1.0" encoding="utf-8"?>
<svg viewBox="0 0 200 200" xmlns="http://www.w3.org/2000/svg" style="fill: #151517">
  <path d="M 43.984 25.763 L 43.984 23.927 Q 43.984 22.365 44.492 21.857 Q 45 21.349 46.563 21.349 L 49.844 21.349 Q 51.367 21.349 51.875 21.857 Q 52.383 22.365 52.383 23.927 L 52.383 25.802 Q 52.383 27.052 52.734 27.306 Q 53.086 27.56 55.313 27.951 Q 55.859 28.068 57.5 28.576 Q 58.203 28.771 58.594 28.771 Q 58.984 28.771 59.648 28.537 Q 61.289 27.951 61.992 27.951 Q 64.063 27.951 66.641 31.427 Q 69.375 35.099 69.375 38.576 Q 69.375 40.607 68.242 41.857 Q 67.109 43.107 65.313 43.107 Q 63.984 43.107 63.145 42.54 Q 62.305 41.974 58.711 38.693 Q 55.195 35.451 51.094 35.451 Q 49.336 35.451 48.223 36.408 Q 47.109 37.365 47.109 38.888 Q 47.109 40.997 49.453 42.247 Q 50.352 42.755 56.641 44.63 Q 62.93 46.544 66.172 49.435 Q 70.313 53.185 70.313 59.201 Q 70.313 65.333 65.898 69.474 Q 63.438 71.818 60.156 73.38 Q 56.875 74.943 53.984 75.177 Q 52.93 75.255 52.656 75.568 Q 52.383 75.88 52.383 77.013 L 52.383 78.81 Q 52.383 80.372 51.875 80.88 Q 51.367 81.388 49.844 81.388 L 46.563 81.388 Q 45 81.388 44.492 80.88 Q 43.984 80.372 43.984 78.81 L 43.984 77.013 Q 43.984 75.958 43.77 75.626 Q 43.555 75.294 42.852 75.216 Q 39.453 74.787 36.113 73.751 Q 32.773 72.716 31.602 71.74 Q 30.117 70.529 28.887 66.896 Q 27.656 63.263 27.656 60.138 Q 27.656 58.497 28.418 57.54 Q 29.18 56.583 30.43 56.583 Q 31.914 56.583 33.477 58.38 Q 33.906 58.888 36.133 62.326 Q 37.617 64.63 40.293 65.939 Q 42.969 67.247 46.133 67.247 Q 48.672 67.247 50.293 66.31 Q 51.914 65.372 51.914 63.888 Q 51.914 62.091 49.688 60.841 Q 48.945 60.451 43.008 58.302 Q 28.828 53.263 28.828 42.599 Q 28.828 36.622 33.711 32.13 Q 37.5 28.615 42.266 27.677 Q 43.516 27.443 43.75 27.169 Q 43.984 26.896 43.984 25.763 Z" transform="matrix(0.920505, -0.390731, 0.390731, 0.920505, -22.833737, 17.564436)" style="transform-origin: 49.0093px 45.6674px;"/>
  <path d="M 139.709 15.352 L 139.709 13.709 Q 139.709 12.311 140.164 11.856 Q 140.618 11.402 142.016 11.402 L 144.953 11.402 Q 146.317 11.402 146.771 11.856 Q 147.226 12.311 147.226 13.709 L 147.226 15.387 Q 147.226 16.506 147.54 16.733 Q 147.855 16.961 149.848 17.31 Q 150.337 17.415 151.805 17.87 Q 152.435 18.044 152.784 18.044 Q 153.134 18.044 153.728 17.835 Q 155.197 17.31 155.826 17.31 Q 157.679 17.31 159.986 20.422 Q 162.434 23.708 162.434 26.82 Q 162.434 28.638 161.42 29.756 Q 160.406 30.875 158.798 30.875 Q 157.609 30.875 156.857 30.368 Q 156.106 29.861 152.889 26.924 Q 149.743 24.023 146.072 24.023 Q 144.499 24.023 143.502 24.879 Q 142.506 25.736 142.506 27.099 Q 142.506 28.987 144.604 30.106 Q 145.408 30.56 151.036 32.239 Q 156.665 33.952 159.567 36.539 Q 163.273 39.895 163.273 45.279 Q 163.273 50.768 159.322 54.474 Q 157.12 56.571 154.183 57.97 Q 151.246 59.368 148.659 59.578 Q 147.715 59.648 147.47 59.928 Q 147.226 60.207 147.226 61.221 L 147.226 62.829 Q 147.226 64.228 146.771 64.682 Q 146.317 65.137 144.953 65.137 L 142.016 65.137 Q 140.618 65.137 140.164 64.682 Q 139.709 64.228 139.709 62.829 L 139.709 61.221 Q 139.709 60.277 139.517 59.98 Q 139.324 59.683 138.695 59.613 Q 135.654 59.228 132.664 58.302 Q 129.675 57.375 128.626 56.501 Q 127.298 55.418 126.197 52.166 Q 125.095 48.915 125.095 46.118 Q 125.095 44.65 125.777 43.793 Q 126.459 42.937 127.578 42.937 Q 128.906 42.937 130.305 44.545 Q 130.689 44.999 132.682 48.076 Q 134.01 50.139 136.405 51.31 Q 138.8 52.481 141.632 52.481 Q 143.904 52.481 145.355 51.642 Q 146.806 50.803 146.806 49.474 Q 146.806 47.866 144.813 46.747 Q 144.149 46.398 138.835 44.475 Q 126.144 39.965 126.144 30.421 Q 126.144 25.072 130.514 21.051 Q 133.905 17.905 138.171 17.066 Q 139.289 16.856 139.499 16.611 Q 139.709 16.366 139.709 15.352 Z" transform="matrix(0.743145, 0.669131, -0.669131, 0.743145, 27.208868, 4.12062)" style="transform-origin: 144.202px 33.2048px;"/>
  <path d="M 42.529 106.884 L 42.529 105.048 Q 42.529 103.486 43.037 102.978 Q 43.545 102.47 45.108 102.47 L 48.389 102.47 Q 49.912 102.47 50.42 102.978 Q 50.928 103.486 50.928 105.048 L 50.928 106.923 Q 50.928 108.173 51.279 108.427 Q 51.631 108.681 53.858 109.072 Q 54.404 109.189 56.045 109.697 Q 56.748 109.892 57.139 109.892 Q 57.529 109.892 58.193 109.658 Q 59.834 109.072 60.537 109.072 Q 62.608 109.072 65.186 112.548 Q 67.92 116.22 67.92 119.697 Q 67.92 121.728 66.787 122.978 Q 65.654 124.228 63.858 124.228 Q 62.529 124.228 61.69 123.661 Q 60.85 123.095 57.256 119.814 Q 53.74 116.572 49.639 116.572 Q 47.881 116.572 46.768 117.529 Q 45.654 118.486 45.654 120.009 Q 45.654 122.118 47.998 123.368 Q 48.897 123.876 55.186 125.751 Q 61.475 127.665 64.717 130.556 Q 68.858 134.306 68.858 140.322 Q 68.858 146.454 64.443 150.595 Q 61.983 152.939 58.701 154.501 Q 55.42 156.064 52.529 156.298 Q 51.475 156.376 51.201 156.689 Q 50.928 157.001 50.928 158.134 L 50.928 159.931 Q 50.928 161.493 50.42 162.001 Q 49.912 162.509 48.389 162.509 L 45.108 162.509 Q 43.545 162.509 43.037 162.001 Q 42.529 161.493 42.529 159.931 L 42.529 158.134 Q 42.529 157.079 42.315 156.747 Q 42.1 156.415 41.397 156.337 Q 37.998 155.908 34.658 154.872 Q 31.318 153.837 30.147 152.861 Q 28.662 151.65 27.432 148.017 Q 26.201 144.384 26.201 141.259 Q 26.201 139.618 26.963 138.661 Q 27.725 137.704 28.975 137.704 Q 30.459 137.704 32.022 139.501 Q 32.451 140.009 34.678 143.447 Q 36.162 145.751 38.838 147.06 Q 41.514 148.368 44.678 148.368 Q 47.217 148.368 48.838 147.431 Q 50.459 146.493 50.459 145.009 Q 50.459 143.212 48.233 141.962 Q 47.49 141.572 41.553 139.423 Q 27.373 134.384 27.373 123.72 Q 27.373 117.743 32.256 113.251 Q 36.045 109.736 40.811 108.798 Q 42.061 108.564 42.295 108.29 Q 42.529 108.017 42.529 106.884 Z" transform="matrix(0.777146, 0.62932, -0.62932, 0.777146, -11.708532, 26.343745)" style="transform-origin: 47.5497px 126.788px;"/>
  <path d="M 101.662 120.936 L 101.662 119.1 Q 101.662 117.538 102.17 117.03 Q 102.678 116.522 104.241 116.522 L 107.522 116.522 Q 109.045 116.522 109.553 117.03 Q 110.061 117.538 110.061 119.1 L 110.061 120.975 Q 110.061 122.225 110.412 122.479 Q 110.764 122.733 112.991 123.124 Q 113.537 123.241 115.178 123.749 Q 115.881 123.944 116.272 123.944 Q 116.662 123.944 117.326 123.71 Q 118.967 123.124 119.67 123.124 Q 121.741 123.124 124.319 126.6 Q 127.053 130.272 127.053 133.749 Q 127.053 135.78 125.92 137.03 Q 124.787 138.28 122.991 138.28 Q 121.662 138.28 120.823 137.713 Q 119.983 137.147 116.389 133.866 Q 112.873 130.624 108.772 130.624 Q 107.014 130.624 105.901 131.581 Q 104.787 132.538 104.787 134.061 Q 104.787 136.171 107.131 137.421 Q 108.03 137.928 114.319 139.803 Q 120.608 141.717 123.85 144.608 Q 127.991 148.358 127.991 154.374 Q 127.991 160.506 123.576 164.647 Q 121.116 166.991 117.834 168.553 Q 114.553 170.116 111.662 170.35 Q 110.608 170.428 110.334 170.741 Q 110.061 171.053 110.061 172.186 L 110.061 173.983 Q 110.061 175.546 109.553 176.053 Q 109.045 176.561 107.522 176.561 L 104.241 176.561 Q 102.678 176.561 102.17 176.053 Q 101.662 175.546 101.662 173.983 L 101.662 172.186 Q 101.662 171.131 101.448 170.799 Q 101.233 170.467 100.53 170.389 Q 97.131 169.96 93.791 168.924 Q 90.451 167.889 89.28 166.913 Q 87.795 165.702 86.565 162.069 Q 85.334 158.436 85.334 155.311 Q 85.334 153.671 86.096 152.713 Q 86.858 151.756 88.108 151.756 Q 89.592 151.756 91.155 153.553 Q 91.584 154.061 93.811 157.499 Q 95.295 159.803 97.971 161.112 Q 100.647 162.421 103.811 162.421 Q 106.35 162.421 107.971 161.483 Q 109.592 160.546 109.592 159.061 Q 109.592 157.264 107.366 156.014 Q 106.623 155.624 100.686 153.475 Q 86.506 148.436 86.506 137.772 Q 86.506 131.796 91.389 127.303 Q 95.178 123.788 99.944 122.85 Q 101.194 122.616 101.428 122.342 Q 101.662 122.069 101.662 120.936 Z" transform="matrix(0.970296, -0.241922, 0.241922, 0.970296, 57.377084, 2.927425)" style="transform-origin: 106.687px 140.84px;"/>
  <path d="M 42.529 106.884 L 42.529 105.048 Q 42.529 103.486 43.037 102.978 Q 43.545 102.47 45.108 102.47 L 48.389 102.47 Q 49.912 102.47 50.42 102.978 Q 50.928 103.486 50.928 105.048 L 50.928 106.923 Q 50.928 108.173 51.279 108.427 Q 51.631 108.681 53.858 109.072 Q 54.404 109.189 56.045 109.697 Q 56.748 109.892 57.139 109.892 Q 57.529 109.892 58.193 109.658 Q 59.834 109.072 60.537 109.072 Q 62.608 109.072 65.186 112.548 Q 67.92 116.22 67.92 119.697 Q 67.92 121.728 66.787 122.978 Q 65.654 124.228 63.858 124.228 Q 62.529 124.228 61.69 123.661 Q 60.85 123.095 57.256 119.814 Q 53.74 116.572 49.639 116.572 Q 47.881 116.572 46.768 117.529 Q 45.654 118.486 45.654 120.009 Q 45.654 122.118 47.998 123.368 Q 48.897 123.876 55.186 125.751 Q 61.475 127.665 64.717 130.556 Q 68.858 134.306 68.858 140.322 Q 68.858 146.454 64.443 150.595 Q 61.983 152.939 58.701 154.501 Q 55.42 156.064 52.529 156.298 Q 51.475 156.376 51.201 156.689 Q 50.928 157.001 50.928 158.134 L 50.928 159.931 Q 50.928 161.493 50.42 162.001 Q 49.912 162.509 48.389 162.509 L 45.108 162.509 Q 43.545 162.509 43.037 162.001 Q 42.529 161.493 42.529 159.931 L 42.529 158.134 Q 42.529 157.079 42.315 156.747 Q 42.1 156.415 41.397 156.337 Q 37.998 155.908 34.658 154.872 Q 31.318 153.837 30.147 152.861 Q 28.662 151.65 27.432 148.017 Q 26.201 144.384 26.201 141.259 Q 26.201 139.618 26.963 138.661 Q 27.725 137.704 28.975 137.704 Q 30.459 137.704 32.022 139.501 Q 32.451 140.009 34.678 143.447 Q 36.162 145.751 38.838 147.06 Q 41.514 148.368 44.678 148.368 Q 47.217 148.368 48.838 147.431 Q 50.459 146.493 50.459 145.009 Q 50.459 143.212 48.233 141.962 Q 47.49 141.572 41.553 139.423 Q 27.373 134.384 27.373 123.72 Q 27.373 117.743 32.256 113.251 Q 36.045 109.736 40.811 108.798 Q 42.061 108.564 42.295 108.29 Q 42.529 108.017 42.529 106.884 Z" transform="matrix(0.970296, -0.241922, 0.241922, 0.970296, 55.039548, -33.371518)" style="transform-origin: 47.55px 126.788px;"/>
  <path d="M 35.891 90.226 L 35.891 88.677 Q 35.891 87.358 36.32 86.93 Q 36.748 86.501 38.066 86.501 L 40.835 86.501 Q 42.12 86.501 42.549 86.93 Q 42.977 87.358 42.977 88.677 L 42.977 90.259 Q 42.977 91.313 43.274 91.528 Q 43.571 91.742 45.449 92.072 Q 45.911 92.17 47.295 92.599 Q 47.888 92.764 48.218 92.764 Q 48.547 92.764 49.108 92.566 Q 50.492 92.072 51.085 92.072 Q 52.832 92.072 55.007 95.005 Q 57.314 98.103 57.314 101.036 Q 57.314 102.75 56.359 103.805 Q 55.403 104.86 53.887 104.86 Q 52.766 104.86 52.057 104.382 Q 51.349 103.904 48.317 101.135 Q 45.35 98.4 41.89 98.4 Q 40.406 98.4 39.467 99.207 Q 38.528 100.015 38.528 101.3 Q 38.528 103.08 40.505 104.134 Q 41.263 104.563 46.57 106.145 Q 51.876 107.76 54.612 110.199 Q 58.105 113.363 58.105 118.439 Q 58.105 123.613 54.381 127.107 Q 52.305 129.084 49.536 130.403 Q 46.768 131.721 44.329 131.919 Q 43.439 131.985 43.208 132.249 Q 42.977 132.512 42.977 133.468 L 42.977 134.984 Q 42.977 136.302 42.549 136.731 Q 42.12 137.159 40.835 137.159 L 38.066 137.159 Q 36.748 137.159 36.32 136.731 Q 35.891 136.302 35.891 134.984 L 35.891 133.468 Q 35.891 132.578 35.71 132.298 Q 35.529 132.018 34.935 131.952 Q 32.068 131.589 29.25 130.716 Q 26.432 129.842 25.443 129.019 Q 24.191 127.997 23.152 124.932 Q 22.114 121.866 22.114 119.23 Q 22.114 117.845 22.757 117.038 Q 23.4 116.23 24.454 116.23 Q 25.707 116.23 27.025 117.747 Q 27.388 118.175 29.266 121.075 Q 30.519 123.02 32.776 124.124 Q 35.034 125.228 37.704 125.228 Q 39.846 125.228 41.214 124.437 Q 42.582 123.646 42.582 122.394 Q 42.582 120.878 40.703 119.823 Q 40.077 119.493 35.067 117.681 Q 23.103 113.429 23.103 104.431 Q 23.103 99.388 27.223 95.598 Q 30.42 92.632 34.441 91.841 Q 35.496 91.643 35.693 91.412 Q 35.891 91.182 35.891 90.226 Z" transform="matrix(0.45399, -0.891007, 0.891007, 0.45399, 51.290379, -70.842721)" style="transform-origin: 40.133px 107.012px;"/>
  <path d="M 28.171 70.782 L 28.171 69.566 Q 28.171 68.531 28.508 68.194 Q 28.844 67.858 29.879 67.858 L 32.053 67.858 Q 33.062 67.858 33.399 68.194 Q 33.735 68.531 33.735 69.566 L 33.735 70.808 Q 33.735 71.636 33.968 71.804 Q 34.201 71.972 35.676 72.231 Q 36.038 72.309 37.125 72.645 Q 37.591 72.775 37.85 72.775 Q 38.109 72.775 38.549 72.619 Q 39.636 72.231 40.101 72.231 Q 41.473 72.231 43.181 74.534 Q 44.992 76.967 44.992 79.27 Q 44.992 80.616 44.242 81.444 Q 43.491 82.272 42.301 82.272 Q 41.421 82.272 40.865 81.897 Q 40.308 81.522 37.927 79.348 Q 35.598 77.2 32.881 77.2 Q 31.717 77.2 30.979 77.834 Q 30.241 78.468 30.241 79.477 Q 30.241 80.875 31.794 81.703 Q 32.389 82.039 36.556 83.282 Q 40.722 84.55 42.87 86.465 Q 45.614 88.949 45.614 92.934 Q 45.614 96.997 42.689 99.741 Q 41.059 101.293 38.885 102.328 Q 36.711 103.364 34.796 103.519 Q 34.097 103.571 33.916 103.778 Q 33.735 103.985 33.735 104.735 L 33.735 105.926 Q 33.735 106.961 33.399 107.297 Q 33.062 107.634 32.053 107.634 L 29.879 107.634 Q 28.844 107.634 28.508 107.297 Q 28.171 106.961 28.171 105.926 L 28.171 104.735 Q 28.171 104.036 28.029 103.816 Q 27.886 103.596 27.421 103.545 Q 25.169 103.26 22.957 102.574 Q 20.744 101.888 19.968 101.241 Q 18.984 100.439 18.169 98.032 Q 17.354 95.626 17.354 93.555 Q 17.354 92.469 17.858 91.834 Q 18.363 91.2 19.191 91.2 Q 20.175 91.2 21.21 92.391 Q 21.494 92.727 22.969 95.005 Q 23.953 96.532 25.726 97.398 Q 27.498 98.265 29.594 98.265 Q 31.277 98.265 32.351 97.644 Q 33.425 97.023 33.425 96.04 Q 33.425 94.849 31.949 94.021 Q 31.458 93.762 27.524 92.339 Q 18.13 89.001 18.13 81.936 Q 18.13 77.976 21.365 75 Q 23.875 72.671 27.032 72.05 Q 27.861 71.895 28.016 71.714 Q 28.171 71.532 28.171 70.782 Z" transform="matrix(0.97437, 0.224951, -0.224951, 0.97437, 57.152337, 90.345849)" style="transform-origin: 31.493px 83.974px;"/>
</svg>